<svg width="28" height="28" viewBox="0 0 28 28" fill="none" xmlns="http://www.w3.org/2000/svg">
<path d="M14 0.875C6.75106 0.875 0.875 6.7515 0.875 14C0.875 21.2485 6.7515 27.125 14 27.125C21.2485 27.125 27.125 21.2485 27.125 14C27.125 6.7515 21.2485 0.875 14 0.875ZM10.9484 21.875L10.9397 21.8662L10.9323 21.875L4.8125 15.575L7.88769 12.4408L10.9401 15.5837L20.1276 6.12544L23.1875 9.27456L10.9484 21.875Z" fill="#116DFF"/>
<path d="M23.5 9L20 6L11 15.2903L7.99999 12.1935L4.5 15.5L11 22L23.5 9Z" fill="white"/>
</svg>
