<svg width="58" height="58" viewBox="0 0 58 58" fill="none" xmlns="http://www.w3.org/2000/svg">
<path d="M29 3.625C14.9871 3.625 3.625 14.9871 3.625 29C3.625 43.0129 14.9871 54.375 29 54.375C43.0129 54.375 54.375 43.0129 54.375 29C54.375 14.9871 43.0129 3.625 29 3.625ZM29 50.0703C17.366 50.0703 7.92969 40.634 7.92969 29C7.92969 17.366 17.366 7.92969 29 7.92969C40.634 7.92969 50.0703 17.366 50.0703 29C50.0703 40.634 40.634 50.0703 29 50.0703ZM31.7018 27.6859L30.2631 27.3518V19.7449C32.4154 20.0395 33.7465 21.3875 33.973 23.0414C34.0014 23.268 34.1939 23.4322 34.4205 23.4322H36.9637C37.2299 23.4322 37.4395 23.2 37.4168 22.9338C37.0713 19.4051 34.1656 17.1395 30.2857 16.7486V14.8965C30.2857 14.6473 30.0818 14.4434 29.8326 14.4434H28.241C27.9918 14.4434 27.7879 14.6473 27.7879 14.8965V16.7656C23.7777 17.1564 20.6398 19.3711 20.6398 23.5059C20.6398 27.3348 23.4605 29.1813 26.4229 29.8893L27.8219 30.2461V38.3287C25.3184 37.9945 23.9137 36.6578 23.6248 34.8566C23.5908 34.6414 23.3982 34.4828 23.1773 34.4828H20.5605C20.2943 34.4828 20.0848 34.7094 20.1074 34.9756C20.3623 38.0908 22.7242 40.9568 27.7652 41.325V43.1035C27.7652 43.3527 27.9691 43.5566 28.2184 43.5566H29.827C30.0762 43.5566 30.2801 43.3527 30.2801 43.0979L30.2688 41.3023C34.7037 40.9115 37.8756 38.5383 37.8756 34.2789C37.8699 30.348 35.3721 28.5922 31.7018 27.6859ZM27.8162 26.7684C27.499 26.6777 27.2328 26.5928 26.9666 26.4852C25.0521 25.7941 24.1629 24.6783 24.1629 23.2396C24.1629 21.1836 25.7205 20.0111 27.8162 19.7449V26.7684ZM30.2631 38.3457V30.7729C30.4387 30.8238 30.5973 30.8635 30.7615 30.8975C33.4406 31.7131 34.3412 32.8459 34.3412 34.5848C34.3412 36.7994 32.676 38.1305 30.2631 38.3457Z" fill="white"/>
</svg>
